<svg xmlns="http://www.w3.org/2000/svg" width="110.37" height="110.122" viewBox="0 0 110.37 110.122"><defs><style>.a{fill:#fff;}.b{fill:#7c54a2;}</style></defs><g transform="translate(0 0)"><path class="a" d="M55.248.062C39.953.062,24.721.249,9.426,0A9.368,9.368,0,0,0,0,9.551C.062,39.89,0,70.292,0,100.631c0,5.681,3.808,9.489,9.489,9.489h91.081c5.868,0,9.676-3.808,9.676-9.739V9.738A9.28,9.28,0,0,0,100.569,0C85.587.249,70.355.062,55.248.062Z" transform="translate(0 0.001)"/><path class="b" d="M55.322.062C70.492.062,85.6.187,100.769,0a9.346,9.346,0,0,1,9.676,9.739v90.644c0,5.868-3.808,9.739-9.676,9.739H9.688C4.008,110.12.2,106.312.2,100.631V9.551A9.394,9.394,0,0,1,9.564,0C24.8.249,40.09.062,55.322.062ZM97.523,55C97.9,32.461,79.294,12.485,55.2,12.485a42.358,42.358,0,0,0-.25,84.713C79.169,97.448,97.9,77.284,97.523,55Z" transform="translate(-0.075 0.001)"/><path class="a" d="M105.263,62.513c.375,22.286-18.353,42.45-42.575,42.2A42.358,42.358,0,0,1,62.938,20C87.035,20.062,105.638,39.977,105.263,62.513Zm-3.371-.062a38.829,38.829,0,1,0-38.58,38.892A38.664,38.664,0,0,0,101.892,62.45Z" transform="translate(-7.815 -7.514)"/><path class="b" d="M103.959,64.479c.25,20.975-17.1,38.829-38.58,38.892A38.924,38.924,0,0,1,26.3,64.542C26.3,43.129,43.03,25.4,65.192,25.4A38.782,38.782,0,0,1,103.959,64.479Zm-52.875.312V85.2c0,1.935.5,2.5,2.5,2.5,4.37,0,8.677.125,13.047,0,6.492-.25,11.924-2.934,15.544-8.365,4.37-6.68,5.244-14.046,3.121-21.725C82.734,48.123,74.93,42.068,65.067,42.318c-3.87.062-7.8,0-11.674,0-2,0-2.31.312-2.31,2.31Z" transform="translate(-9.882 -9.543)"/><path class="a" d="M66,74.932V54.705c0-2,.312-2.31,2.31-2.31,3.87,0,7.8.062,11.674,0,9.8-.25,17.667,5.743,20.226,15.295a25.865,25.865,0,0,1-3.121,21.725c-3.621,5.556-8.989,8.178-15.544,8.365-4.37.125-8.677,0-13.047,0-1.935,0-2.5-.5-2.5-2.5C66,88.541,66,81.736,66,74.932Zm3.371.062V93.285c0,1.124.375,1.5,1.5,1.5,3.059-.062,6.118,0,9.239,0A16.939,16.939,0,0,0,96.589,83.109c1.373-4,1.124-8.115.812-12.173a16.552,16.552,0,0,0-14.982-15.17c-3.746-.312-7.554-.125-11.3-.312-1.249-.062-1.748.375-1.623,1.623C69.371,63.07,69.371,69,69.371,74.994Z" transform="translate(-24.798 -19.683)"/><path class="b" d="M71.325,76.791V58.812c0-1.249.437-1.748,1.623-1.623,3.746.125,7.554,0,11.3.312A16.552,16.552,0,0,1,99.23,72.671c.312,4.058.5,8.178-.812,12.173A16.884,16.884,0,0,1,81.937,96.518c-3.059,0-6.118-.062-9.239,0-1.124,0-1.5-.375-1.5-1.5C71.325,89.026,71.325,82.971,71.325,76.791Z" transform="translate(-26.752 -21.48)"/></g></svg>