<svg xmlns="http://www.w3.org/2000/svg" width="111.526" height="110.121" viewBox="0 0 111.526 110.121"><g transform="translate(0 0)"><path d="M36.587,99.128a6.762,6.762,0,0,0-1.194-.817C21,91.021,11.512,79.961,8.308,63.873A48.019,48.019,0,0,1,9.753,39.3c.377-1.131.126-1.445-1.068-1.32-3.833.251-6.661-1.32-8.232-4.839a4.745,4.745,0,0,1,.063-4.022,7.4,7.4,0,0,0,.628-2.828c.063-5.216,0-10.495,0-15.648a3.06,3.06,0,0,1,.126-1.32,1.216,1.216,0,0,1,.943-.817c.314,0,.691.5.88.88a3.337,3.337,0,0,1,.063,1.131V23.905c0,1.131.063,1.068,1.131.88,1.948-.377,3.9-.628,5.782-.88a3.7,3.7,0,0,0,3.142-2.828c.44-2.451-1.571-4.273-4.21-3.645a4.065,4.065,0,0,0-.817.251c-.5.063-1.131.063-1.194-.5a1.619,1.619,0,0,1,.628-1.194A5.2,5.2,0,0,1,15.095,19a5.588,5.588,0,0,1-4.965,7.1c-1.257.126-2.451.251-3.645.377a4.942,4.942,0,0,0-4.21,4.4,4.5,4.5,0,0,0,2.891,4.776,7.836,7.836,0,0,0,3.016.628,4.154,4.154,0,0,0,3.771-2.2c1.634-2.7,3.268-5.4,5.09-7.981,2.2-3.142,2.262-6.41,1.131-9.929a19.215,19.215,0,0,0-3.959-6.724,9.588,9.588,0,0,1-.817-.943,1.12,1.12,0,0,1,.126-1.634c.5-.44,1.068-.251,1.508.251.754.754,1.445,1.508,2.2,2.2a17.525,17.525,0,0,0,8.861,4.462,9.929,9.929,0,0,0,6.976-1.257,12.49,12.49,0,0,0-2.262-1.948,2.926,2.926,0,0,0-1.948-.251C24.458,11.4,20.75,9.891,18.551,6c-.88-1.571-.628-2.388,1.194-2.388a7.333,7.333,0,0,1,3.268.754,16.05,16.05,0,0,1,2.514,1.7C26.218,6.5,26.846,7,27.6,7.5c1.131.691,1.571.377,1.634-.88A7.342,7.342,0,0,1,29.485,4.3,6.651,6.651,0,0,1,32.565.465a1.411,1.411,0,0,1,1.194.251c.251.251.126.88,0,1.194a18.576,18.576,0,0,1-1.508,1.634c-1.32,1.822-1.445,3.582-.314,5.153a4.712,4.712,0,0,0,5.342,1.7,5.705,5.705,0,0,0,3.016-2.262c.691-.943,1.32-2.011,2.074-3.016,1.822-2.388,4.085-4.085,7.164-3.9a14.783,14.783,0,0,1,4.4,1.257,4.482,4.482,0,0,0,4.273,0,9.164,9.164,0,0,1,5.467-1.257,8.36,8.36,0,0,1,5.907,3.519C70.647,6,71.464,7.44,72.47,8.7a4.689,4.689,0,0,0,8.421-2.639,3.814,3.814,0,0,0-1.885-3.833c-.126-.126-.44-.251-.5-.377-.126-.44-.314-.943-.126-1.257A1.258,1.258,0,0,1,79.571.276,5.711,5.711,0,0,1,82.839,4.99a7.6,7.6,0,0,1-.063,1.194c-.063,1.194.5,1.634,1.571,1.131a8.594,8.594,0,0,0,1.508-1.131c1.508-1.194,2.828-2.514,4.839-2.765.943-.126,2.011-.251,2.7.691.628.88-.126,1.7-.628,2.451a8.679,8.679,0,0,1-9.3,3.833,3.975,3.975,0,0,0-4.085,1.571c-.628.691.063.88.5,1.131a10.127,10.127,0,0,0,6.661.44,19.9,19.9,0,0,0,9.678-5.907l.44-.44c.5-.5,1.068-.817,1.7-.251.628.5.5,1.068-.063,1.822a19.665,19.665,0,0,0-4.776,7.981,11.144,11.144,0,0,0,1.7,10.181A37.738,37.738,0,0,1,99.492,33.9c1.068,2.262,3.268,3.016,6.159,2.262a4.976,4.976,0,0,0,3.833-4.776,4.917,4.917,0,0,0-4.336-4.713c-1.194-.126-2.325-.251-3.519-.377a5.528,5.528,0,0,1-4.839-7.415,5.342,5.342,0,0,1,7.478-2.7.908.908,0,0,1,.44,1.257c-.251.628-.628.691-1.194.5a13.183,13.183,0,0,0-2.074-.377,3,3,0,0,0-2.891,2.828A3.409,3.409,0,0,0,101,23.905a36.267,36.267,0,0,0,3.645.5,26.737,26.737,0,0,1,3.2.88c.88.314,1.257.251,1.32-.754a13.105,13.105,0,0,0,0-1.571V9.64c0-.691.251-1.131,1.068-1.131s.943.5.943,1.194c0,3.079-.063,6.159-.063,9.175,0,3.142-.063,6.347,0,9.489,0,.88.44,1.885.44,2.765a6.922,6.922,0,0,1-5.09,6.724,13.936,13.936,0,0,1-2.828.377c-1.508.063-1.822.44-1.32,1.822a45.1,45.1,0,0,1,2.388,9.426A43.7,43.7,0,0,1,103.2,67.958C99.241,81.783,90.38,91.587,77.749,98.185c-.628.314-1.445.314-1.634,1.257q.943.189,1.7.377a11.516,11.516,0,0,1,8.3,6.976,1.678,1.678,0,0,0,1.885,1.194c.754-.063.943-.314.817-1.068a7.57,7.57,0,0,1,.063-2.074c.5-1.822,1.885-2.451,3.582-2.514a1.5,1.5,0,0,0,1.508-1.32c.88-4.273,2.639-5.97,7.038-6.724a30.658,30.658,0,0,0,3.456-.754c4.273-1.32,5.844-5.153,3.9-9.175-.126-.314-.314-.5-.44-.817-.251-.5-.44-.943.126-1.445.628-.44,1.131-.126,1.508.377a7.287,7.287,0,0,1,1.634,4.21,8.634,8.634,0,0,1-2.765,6.976c-1.194,1.131-1.194,1.257,0,2.388,2.262,2.074,2.7,4.776,2.514,7.6a.819.819,0,0,1-1.257.754c-1.32-.5-2.765-1.131-4.085-1.634-1.822-.754-3.268-1.7-3.645-3.833a1.2,1.2,0,0,1,0-.817c.126-.314.44-.817.691-.817.314,0,.943.314.943.5.377,2.262,2.011,3.016,3.959,3.456.314.063.88.126,1.068-.063a1.181,1.181,0,0,0,.126-1.131,5.259,5.259,0,0,0-3.582-3.582A7.572,7.572,0,0,0,97.8,97.62a4.085,4.085,0,0,0-1.571,4.713c.5,1.885,1.7,3.393,3.771,3.519a7.712,7.712,0,0,0,2.891-.628c.628-.251,1.194-.691,1.7.126.44.817-.126,1.194-.691,1.571-.377.314-.691.628-.943.88.063.063.063.251.126.314h2.262c1.508,0,3.016,0,4.462.063.691,0,1.194.251,1.194,1.068,0,.754-.628.88-1.257.88H84.787a3.059,3.059,0,0,1-.754-.063c-.754-.126-1.068-.691-.628-1.257.88-1.068.44-1.885-.126-2.828a9.994,9.994,0,0,0-15.962-.628,3.715,3.715,0,0,0-.754,1.068c-.126.314-.377.817-.251.943.251.314.817.628,1.131.44a4.127,4.127,0,0,0,1.445-1.131,6.39,6.39,0,0,1,7.855-2.325,6.084,6.084,0,0,1,3.394,3.645,1.011,1.011,0,0,1-.5,1.445c-.691.314-.943-.063-1.257-.628a11.84,11.84,0,0,0-.88-1.508,4.339,4.339,0,0,0-5.342-1.068c-.314.251-.44.754-.691,1.131a3.994,3.994,0,0,0,1.131.377c.628.063,1.257,0,1.885.126a1.1,1.1,0,0,1,.754.817c0,.314-.44.691-.817.817a5.329,5.329,0,0,1-1.445.063H65.494c-1.571,0-2.2-.691-1.508-2.074.628-1.32,1.508-2.639,2.262-3.959a8,8,0,0,1,.817-1.194c-.063-.063-.063-.126-.126-.314-1.445.251-2.765.44-4.21.628a2.288,2.288,0,0,0-2.325,1.7,15.117,15.117,0,0,1-1.634,2.451c-.628.88-1.131,1.822-1.7,2.639a2.355,2.355,0,0,1-.88.754c-.251.063-.5-.44-.754-.754-.5-.754-1.068-1.508-1.571-2.325-.754-1.131-1.445-2.325-2.2-3.456-.251-.314-.44-.628-.754-.691-1.822-.377-3.582-.691-5.593-1.068a8.164,8.164,0,0,1,.817,1.194c.817,1.508,1.7,3.016,2.325,4.462.5,1.257.126,1.822-1.257,1.885-2.074,0-4.21,0-6.221-.063a1.466,1.466,0,0,1-1.068-.628c-.063-.314.251-.754.5-1.068.691-.754.691-.88-.126-1.32a3.951,3.951,0,0,0-5.4.754,6.531,6.531,0,0,0-1.068,1.508c-.314.566-.691.88-1.32.628-.628-.314-.628-.88-.377-1.445a6.205,6.205,0,0,1,2.891-3.394,6.345,6.345,0,0,1,8.17,2.011,3.791,3.791,0,0,0,1.445,1.194,1.554,1.554,0,0,0,1.257-.44c.126-.063.063-.754-.063-.943-2.2-3.079-5.027-4.965-8.924-4.776a9.582,9.582,0,0,0-8.484,5.4,2.143,2.143,0,0,0,.251,1.32c.063.44.44.943.314,1.32-.063.251-.817.377-1.194.377H3.029c-.628,0-1.068-.251-1.068-.88s.44-.88,1.068-.943c1.257-.063,2.451-.126,3.771-.126a14.072,14.072,0,0,0,3.142-.251c-.44-.314-.817-.691-1.257-.943-.628-.44-.88-.88-.44-1.571s.943-.44,1.571-.126a4.6,4.6,0,0,0,6.976-3.456A4.916,4.916,0,0,0,13.4,96.551a10.09,10.09,0,0,0-5.782-.377c-2.2.44-3.142,2.074-3.771,3.959a.7.7,0,0,0,.943.943c1.822-.5,3.771-1.068,4.022-3.393.063-.5.44-.817,1.131-.754a.964.964,0,0,1,.817,1.194,4.751,4.751,0,0,1-2.2,3.519,19.127,19.127,0,0,1-2.325,1.068c-1.068.44-2.074.817-3.079,1.257-1.131.5-1.571.251-1.634-.943,0-3.268.88-6.221,3.645-8.232a3.854,3.854,0,0,0,.377-.251c-.628-.628-1.194-1.068-1.634-1.571a8.218,8.218,0,0,1-.817-10.62c.251-.314.5-.628.754-.628a1.564,1.564,0,0,1,1.194.44,1.817,1.817,0,0,1-.126,1.131,6.421,6.421,0,0,0-1.131,5.4c.691,2.639,2.514,4.022,5.027,4.713a12.117,12.117,0,0,0,3.016.5c3.959.5,5.97,2.325,6.787,6.284.251,1.194.691,1.822,1.948,1.948,2.388.314,3.582,2.011,3.456,4.4,0,.377.063.943.377,1.131a1.526,1.526,0,0,0,1.948-.5,1.575,1.575,0,0,1,.251-.44,11.957,11.957,0,0,1,9.866-7.415C35.958,99.253,36.147,99.253,36.587,99.128ZM87.678,51.87l.251-.251a13.1,13.1,0,0,0,0-1.571A31.42,31.42,0,0,0,83.97,38.925c-1.194-1.948-2.639-3.645-3.9-5.53-.377-.5-.628-1.068,0-1.571s1.068-.251,1.508.314a33.951,33.951,0,0,1,8.547,20.235c.063.5.063,1.194.691,1.194a1.681,1.681,0,0,0,1.131-.88,6,6,0,0,1,2.451-2.7,1.506,1.506,0,0,0,.817-1.822,40.409,40.409,0,0,0-8.17-18.413c-1.822-2.388-5.844-2.388-7.541-.251-2.2,2.7-4.462,5.153-6.724,7.73-.251.251-.377.628-.691.691a1.7,1.7,0,0,1-1.131-.063,1.4,1.4,0,0,1-.251-1.131c.063-.314.377-.5.628-.817,2.262-2.514,4.4-5.027,6.661-7.541a4.637,4.637,0,0,0-1.194-7.478,50.177,50.177,0,0,0-6.976-3.268c-2.074-.817-4.336-1.257-6.536-1.885-1.32-.314-2.074,0-2.451,1.068a4.473,4.473,0,0,1-2.765,2.765,2.241,2.241,0,0,0-.628.691c.314.126.5.5.817.5A37.061,37.061,0,0,1,75.046,26.23c.817.5.943.943.628,1.634-.377.691-.88.691-1.7.251a52.478,52.478,0,0,0-4.839-2.7A28.2,28.2,0,0,0,59.084,22.9c.314.44.5.88.754,1.194,2.514,2.514,5.09,5.027,7.6,7.541.5.5.88.943.314,1.634-.5.628-1.068.628-1.7-.126-2.7-2.7-5.342-5.4-7.981-8.107-1.445-1.445-1.948-1.445-3.394,0l-8.358,8.358c-.5.5-1.068.754-1.571.063a1.008,1.008,0,0,1,.126-1.571c2.7-2.639,5.4-5.216,8.107-7.918.251-.251.377-.628.628-.817-.063-.063-.063-.126-.126-.314-1.131.126-2.2.251-3.268.44A29.121,29.121,0,0,0,37.089,29c-1.131.88-1.131,1.257-.126,2.325,1.445,1.634,2.828,3.2,4.273,4.839.377.44.691.943.063,1.445-.5.5-1.068.377-1.571-.126a1.719,1.719,0,0,1-.251-.314c-1.194-1.32-2.451-2.765-3.582-4.085-1.32-1.634-1.7-1.634-3.142-.063a32.816,32.816,0,0,0-7.73,15.208,31.132,31.132,0,0,0-.377,3.393c.063.063.251.063.314.126a5.516,5.516,0,0,0,.943-.754l9.929-9.929c.5-.5,1.068-.88,1.634-.251.628.691.251,1.194-.251,1.634l-8.609,8.609c-.817.817-1.634,1.571-2.451,2.388-.754.817-.754,1.32-.063,2.262l.691.691c7.981,7.981,16.025,16.025,24.006,23.943,1.508,1.508,2.891,3.016,4.4,4.4.88.88,1.508.88,2.451,0l.5-.5L86.3,56.081c1.194-1.194,1.194-1.822-.063-3.079-3.645-3.582-7.29-7.164-10.935-10.872-.691-.691-.691-1.194-.126-1.634.628-.628,1.131-.314,1.571.126,3.394,3.394,6.724,6.787,10.118,10.181A1.256,1.256,0,0,0,87.678,51.87Zm.126,6.661c-9.426,9.112-18.853,18.35-28.279,27.525a3.486,3.486,0,0,1,.377.5,25.684,25.684,0,0,0,3.771-.44A27.171,27.171,0,0,0,75.3,80.275c5.027-4.022,9.112-8.735,11.437-14.831A13.261,13.261,0,0,0,87.8,58.531Zm-63.282,0c.314,14.517,15.585,27.9,27.9,27.776C43.059,77.007,33.822,67.832,24.521,58.531ZM20.939,19.695a10.34,10.34,0,0,1-.251,1.948A16.9,16.9,0,0,1,17.231,29a41.626,41.626,0,0,0-5.342,9.678A46.333,46.333,0,0,0,9.439,49.168c-.251,1.508.063,1.822,1.508,1.445.817-.251,1.571-.5,2.388-.691a1.946,1.946,0,0,0,1.634-1.885,41.522,41.522,0,0,1,9.175-20.11,5.3,5.3,0,0,0,.251-7.1c-.943-1.194-2.074-2.325-3.142-3.456-.126-.126-.377-.126-.5-.251a2.233,2.233,0,0,0-.126.628A18.021,18.021,0,0,1,20.939,19.695ZM91.2,17.244a.369.369,0,0,1-.126-.314,2.508,2.508,0,0,0-.817.44c-.88.88-1.7,1.885-2.514,2.828A4.585,4.585,0,0,0,86.8,22.02a5.8,5.8,0,0,0,1.131,5.719A38.984,38.984,0,0,1,96.79,45.774c.5,3.079,2.074,4.462,4.839,4.965,1.068.126,1.194,0,1.068-1.068a42.846,42.846,0,0,0-7.29-19.23,46.084,46.084,0,0,1-2.514-3.959A11.537,11.537,0,0,1,91.2,17.244Zm-12.82,63.6c.063.063.063.126.126.251.377-.063.754-.063,1.131-.126,1.445-.126,2.891-.377,4.336-.44A4.206,4.206,0,0,0,87.489,78.7c1.068-1.508,2.074-3.016,3.016-4.588a38.287,38.287,0,0,0,4.65-12.82,2.085,2.085,0,0,0-.943-2.388,5.022,5.022,0,0,1-2.388-2.451c-.126-.314-.754-.628-.943-.5a1.509,1.509,0,0,0-.691.943c-.126.817-.126,1.634-.251,2.451A33.67,33.67,0,0,1,79.383,79.709,5.651,5.651,0,0,0,78.377,80.841Zm-44.744.251c.063-.063.063-.126.126-.251-.251-.251-.377-.5-.628-.754-.88-.943-1.885-1.885-2.7-2.828a33.852,33.852,0,0,1-8.484-20.11c0-.44-.377-.817-.628-1.194-.314.314-.691.5-.88.88a4.661,4.661,0,0,1-2.388,2.388,1.691,1.691,0,0,0-1.131,2.2,40.683,40.683,0,0,0,7.6,17.345,3.677,3.677,0,0,0,3.016,1.7C29.674,80.652,31.622,80.841,33.633,81.092ZM22.321,14.479l-.251.251a2.583,2.583,0,0,0,.5.817c.943,1.131,1.885,2.262,2.828,3.268,2.262,2.514,4.965,2.891,7.792,1.068a37.68,37.68,0,0,1,14.831-5.97c2.639-.44,3.393-1.32,3.582-4.022.126-1.445-.063-1.634-1.508-1.32a51.124,51.124,0,0,0-13.763,4.462,20.529,20.529,0,0,1-7.918,2.514A15.805,15.805,0,0,1,22.321,14.479Zm67.3.063c-1.508.314-2.765.691-4.022.817-3.771.44-6.976-.88-10.243-2.514a48.081,48.081,0,0,0-6.41-2.765c-2.325-.754-4.776-1.257-7.164-1.822-1.257-.314-1.822.377-1.445,1.571A8.573,8.573,0,0,0,61.6,12.342a2.837,2.837,0,0,0,1.7,1.131,41.9,41.9,0,0,1,15.836,6.284c1.7,1.131,3.645.817,5.593.314.251-.063.44-.314.691-.5,1.257-1.508,2.639-2.891,3.9-4.4C89.374,15.17,89.5,14.856,89.626,14.542ZM56.822,91.9a24.539,24.539,0,0,0,.251,2.891c.126,1.131.691,1.32,1.571.691.943-.754,1.948-1.571,2.891-2.262,7.792-5.593,16.339-8.358,25.891-6.913a3.66,3.66,0,0,0,4.085-1.571,2.348,2.348,0,0,1,.377-.44c.628-.754.44-1.194-.44-1.32a32.331,32.331,0,0,0-5.027-.628A38.089,38.089,0,0,0,74.229,84.3c-5.09,1.822-10.118,3.833-15.585,4.65C57.325,89.261,56.822,89.953,56.822,91.9Zm-1.76.628h0c0-.628,0-1.257.063-1.885.063-1.32-.377-1.885-1.634-1.948a33.948,33.948,0,0,1-9.678-2.262c-4.4-1.571-8.735-3.268-13.448-3.9A51.715,51.715,0,0,0,21,82.663c-.88.063-1.194.691-.754,1.445a10.068,10.068,0,0,0,1.571,1.7,1.713,1.713,0,0,0,1.948.5,15.543,15.543,0,0,1,3.771-.5A32.561,32.561,0,0,1,45.2,89.7c3.016,1.634,5.719,3.771,8.547,5.593.314.126.754.377.943.314.251-.126.377-.628.44-.88C55.062,94.038,55.062,93.283,55.062,92.529Zm38.523-11.06c.44-.314,1.068-.5,1.32-1.068A46.577,46.577,0,0,0,102.7,59.223c.063-.943-.126-1.131-1.068-.754a8.208,8.208,0,0,1-2.074.754,3.007,3.007,0,0,0-2.639,2.7A39.118,39.118,0,0,1,90.38,78.013a8.321,8.321,0,0,0-.754,1.257c-.377.628-.251,1.131.44,1.257C91.26,80.841,92.328,81.092,93.585,81.469Zm-74.468-.377c.817-.063,1.634-.251,2.451-.377,1.508-.251,1.634-.628.754-1.822A38.334,38.334,0,0,1,15.346,62.93c-.5-2.891-2.074-4.21-5.027-4.588-.817-.126-1.131.126-.943.943.251,1.508.44,3.079.754,4.588a44.69,44.69,0,0,0,6.536,15.773A2.57,2.57,0,0,0,19.116,81.092ZM50.035,15.547a1.751,1.751,0,0,0-.628.063A39.356,39.356,0,0,0,33.57,22.083c-.314.251-.628.754-.5,1.068a6.967,6.967,0,0,1-.251,3.2c-.251.88.44,1.445,1.131,1.885.628.44.943-.126,1.32-.44a41.532,41.532,0,0,1,3.456-2.325A35.633,35.633,0,0,1,54.057,20.7c.314,0,.5-.314.817-.44-.251-.251-.377-.628-.628-.691a5.317,5.317,0,0,1-3.016-3.142A1.066,1.066,0,0,0,50.035,15.547ZM16.666,48.6a11.8,11.8,0,0,0,1.257,1.257,6.236,6.236,0,0,1,2.7,2.7c.126.377.628.628.88.88a5.472,5.472,0,0,0,.628-1.194c.314-1.634.377-3.268.754-4.839a32.818,32.818,0,0,1,8.735-16.213c.943-.943.817-1.885-.314-2.451-1.445-.817-5.153-.126-6.033,1.131A40.239,40.239,0,0,0,19.494,39.8C18.362,42.632,17.608,45.523,16.666,48.6ZM83.4,88.067v-.126c-1.634.126-3.268.126-4.965.377-6.787.88-12.569,3.959-17.91,8.232a1.625,1.625,0,0,0-.063,2.828.735.735,0,0,0,1.194-.063A12.478,12.478,0,0,1,62.918,98c5.467-4.462,11.626-6.976,18.727-6.724,1.822.063,3.645.063,5.027-1.508.251-.314.628-.754.5-.943a1.237,1.237,0,0,0-.943-.628A10.443,10.443,0,0,0,83.4,88.067Zm-54.61-.126c-.88,0-1.885-.063-2.765,0a1.188,1.188,0,0,0-.88.44,1.572,1.572,0,0,0,.251,1.131c.251.314.628.5.88.817,1.131.88,2.451.817,3.833.754,7.792-.377,14.391,2.388,20.11,7.478a3.488,3.488,0,0,0,1.131.691,4.132,4.132,0,0,0,1.068-1.445c.251-.691-.377-1.131-.817-1.508C44.882,91.021,37.466,87.753,28.794,87.942Zm23.88-73.589c.063,0,.126.063.251.063a2.958,2.958,0,0,0,1.76,3.079,2.834,2.834,0,0,0,3.268-.377,3.019,3.019,0,0,0,1.194-3.268c-.44-1.948-.88-3.9-1.445-5.907-.251-.754-.44-1.508-1.571-.943a1.133,1.133,0,0,1-.628-.063c-.628-.251-1.068,0-1.194.5C53.868,9.766,53.24,12.091,52.674,14.353ZM15.6,51.493a9.907,9.907,0,0,0-5.53,2.011c-.817.628-.943,1.32-.251,1.948a8.383,8.383,0,0,0,6.41,2.2,2.919,2.919,0,0,0,2.7-3.268A3.032,3.032,0,0,0,15.6,51.493Zm81.318,0a3.249,3.249,0,0,0-3.394,2.828,3,3,0,0,0,2.828,3.393,8.138,8.138,0,0,0,5.907-2.074,1.21,1.21,0,0,0-.126-2.074A7.7,7.7,0,0,0,96.916,51.493ZM31.057,93.221a36.092,36.092,0,0,0,17.407,6.787C43.5,95.609,37.844,92.969,31.057,93.221Zm33.118,6.913a40.6,40.6,0,0,0,17.156-6.724C77.057,92.152,66.437,96.111,64.175,100.133Zm-5.216,1.508a5.2,5.2,0,0,0-1.571-3.268c-.943-.943-1.571-.943-2.514,0a4.963,4.963,0,0,0,.817,7.73,1.063,1.063,0,0,0,.88,0A8.217,8.217,0,0,0,58.959,101.641ZM43,7.88a.219.219,0,0,1,.126.063C46.2,7.315,49.281,6.812,52.3,6.121c.44-.063.817-.817.943-1.257.189-.251-.189-.88-.566-1.005a9.424,9.424,0,0,0-2.765-.88C46.956,2.727,44.065,4.927,43,7.88Zm26.143.189A8.008,8.008,0,0,0,66.123,4.11a5.769,5.769,0,0,0-6.6-.314A1.663,1.663,0,0,0,58.77,4.99c0,.691.44,1.131,1.257,1.257,2.074.377,4.21.754,6.284,1.194A12.1,12.1,0,0,1,69.139,8.069Z" transform="translate(-0.033 -0.072)"/><path d="M1.663,73.369V64.445a6.83,6.83,0,0,1,.063-1.131.921.921,0,0,1,1.32-.754c1.445.5,2.828.943,4.273,1.571a1.509,1.509,0,0,1,.691.943c0,.251-.44.691-.754.754A6.929,6.929,0,0,1,5.308,65.7c-1.194-.314-1.571-.126-1.634,1.131-.063,2.2,0,4.273,0,6.41v9.426a1.67,1.67,0,0,1-.628,1.32c-.691.44-1.445-.063-1.445-1.068V76.008C1.663,75.128,1.663,74.249,1.663,73.369Z" transform="translate(-0.615 -23.205)"/><path d="M172.984,73.292v9.426c0,.691,0,1.257-.88,1.32-.88,0-1.068-.628-1.068-1.257V68.767c0-.691.063-1.257,0-1.948-.063-1.131-.5-1.32-1.634-1.131a4.555,4.555,0,0,1-1.822.126A1.28,1.28,0,0,1,166.7,65c0-.314.44-.754.754-.88,1.257-.5,2.639-.88,3.9-1.445,1.068-.44,1.571-.251,1.634.943.063,1.822,0,3.582,0,5.4a24.23,24.23,0,0,0,0,4.273Z" transform="translate(-61.962 -23.191)"/><path d="M7.3,47.316A3.128,3.128,0,0,1,10.442,44.3a3.086,3.086,0,0,1,3.142,3.016A3.139,3.139,0,0,1,10.442,50.4,2.986,2.986,0,0,1,7.3,47.316Z" transform="translate(-2.733 -16.445)"/><path d="M163.779,50.5a2.92,2.92,0,0,1-3.079-3.016,3.048,3.048,0,1,1,3.079,3.016Z" transform="translate(-59.733 -16.482)"/><path d="M143.167-.009H149.2c.314,0,.628-.063.817.063.314.251.628.5.691.817,0,.251-.377.628-.628.754a1.725,1.725,0,0,1-.817.126H136.568c-.5-.063-1.068-.251-1.068-.943s.5-.817,1.068-.817h6.6Z" transform="translate(-50.369 0.025)"/><path d="M27.078,1.987H21.045c-.251,0-.628.063-.754-.063-.314-.251-.628-.5-.691-.817a1.053,1.053,0,0,1,.628-.754,1.74,1.74,0,0,1,.817-.063H33.614c.628.063,1.068.251,1.068.88,0,.754-.44.88-1.068.88C31.414,1.987,29.278,1.987,27.078,1.987Z" transform="translate(-7.304 -0.086)"/><path d="M167.177,14.9c0,1.948-.691,2.451-2.388,2.011a4.348,4.348,0,0,1-2.891-5.53c.251-.754.88-.88,1.571-.88a4.4,4.4,0,0,1,3.645,3.645A4.714,4.714,0,0,1,167.177,14.9Z" transform="translate(-60.114 -3.886)"/><path d="M13.814,12.811a4.1,4.1,0,0,1-3.142,4.4c-1.445.314-2.011-.251-2.074-1.634a4.691,4.691,0,0,1,2.011-4.21,3.073,3.073,0,0,1,1.445-.5c1.257-.251,1.7.251,1.822,1.508C13.814,12.434,13.814,12.622,13.814,12.811Z" transform="translate(-3.214 -3.997)"/><path d="M53.4,6.9a2.526,2.526,0,0,1,2.765-2.7,2.609,2.609,0,0,1,2.828,2.828,2.821,2.821,0,0,1-2.765,2.7A2.64,2.64,0,0,1,53.4,6.9Z" transform="translate(-19.863 -1.545)"/><path d="M119.728,4.2a2.606,2.606,0,0,1,2.765,2.765,2.8,2.8,0,0,1-2.828,2.765A2.845,2.845,0,0,1,116.9,6.9,2.576,2.576,0,0,1,119.728,4.2Z" transform="translate(-43.458 -1.545)"/><path d="M166.485,0c1.257.063,2.514.126,3.833.251a1.009,1.009,0,0,1,1.068,1.131c0,1.068,0,2.2-.063,3.2,0,.628-.251,1.131-.943,1.068s-.88-.5-.943-1.131c-.063-2.514-.251-2.639-2.765-2.514-.943,0-2.011,0-3.016-.063-.628,0-1.257-.063-1.257-.88s.691-.88,1.257-.817h2.891Z" transform="translate(-60.364 0.016)"/><path d="M7.74,1.885H5.6a1.656,1.656,0,0,0-1.76,1.885v.754c.063.628-.126,1.068-.817,1.131-.628.063-.88-.377-.88-.943a26.482,26.482,0,0,1-.063-3.142A1.469,1.469,0,0,1,3.656.063C5.792,0,7.929,0,10.066,0,10.694,0,11.2.251,11.2.943s-.566.943-1.194.943Z" transform="translate(-0.786 0.016)"/><path d="M6.036,126.769h-3.2c-.628,0-1.131-.251-1.131-.943,0-.754.44-.943,1.131-.943,2.074,0,4.21-.063,6.284,0,.691,0,1.257.126,1.257.943s-.628.943-1.257.943a25.15,25.15,0,0,1-3.079,0Z" transform="translate(-0.652 -46.377)"/><path d="M167.273,126.822h-3.079c-.691,0-1.194-.314-1.194-.943,0-.754.5-.88,1.131-.88h6.347c.628,0,1.131.251,1.131.943,0,.754-.5.943-1.131.943-1.131-.063-2.2-.063-3.2-.063Z" transform="translate(-60.587 -46.431)"/><path d="M13.41,136.717H10.394c-.691,0-1.194-.251-1.194-.943s.5-.943,1.131-.88h6.033c.691,0,1.194.314,1.194.943,0,.754-.5.88-1.194.88Z" transform="translate(-3.439 -50.104)"/><path d="M160.048,136.648h-3.079c-.628,0-1.068-.251-1.068-.88a.99.99,0,0,1,1.068-1.068h6.284a.962.962,0,0,1,1.068,1.068c0,.691-.44.88-1.068.88Z" transform="translate(-57.949 -50.035)"/><path d="M78,81.192c0,1.257-.063,2.451,0,3.771a5.977,5.977,0,0,0,3.582,5.153,6.124,6.124,0,0,0,6.284-.628,3.405,3.405,0,0,0,1.508-2.828c0-1.131.063-2.262.063-3.394.063-1.131-.754-1.7-1.634-1.194a17.95,17.95,0,0,0-2.639,2.262c-.44.44-.691,1.131-1.445.628-.628-.44-.691-.943-.063-1.634a7.409,7.409,0,0,1,5.844-3.2,7.52,7.52,0,0,0,5.844-2.639c.377-.44.817-.691,1.32-.251.628.5.251.943-.126,1.445a6.609,6.609,0,0,1-3.394,2.388,1.832,1.832,0,0,0-1.508,2.074v2.388c-.063,3.771-1.885,5.907-5.53,6.787-4.336,1.068-8.987-1.508-10.118-5.53a21.307,21.307,0,0,1,0-12.066c1.76-5.719,10.055-7.73,14.14-3.331A8.515,8.515,0,0,1,91.632,74.4a.907.907,0,0,1-.691,1.32.981.981,0,0,1-1.32-.628c-.251-.377-.377-.817-.691-1.257a5.259,5.259,0,0,0-5.153-3.016,6.086,6.086,0,0,0-5.4,3.833,13.731,13.731,0,0,0-.5,5.97A2.332,2.332,0,0,1,78,81.192Z" transform="translate(-27.931 -25.623)"/><path d="M142.252,64.341c-.314.377-.5,1.068-.88,1.194-.817.314-1.131-.377-1.257-1.068a23.645,23.645,0,0,0-2.765-8.484c-1.131-2.011-2.514-3.9-3.833-5.844-.126-.251-.44-.44-.5-.691-.063-.44-.251-1.068-.063-1.257a.915.915,0,0,1,1.445,0,12.69,12.69,0,0,1,1.634,2.011,30.634,30.634,0,0,1,5.907,13.008,4.452,4.452,0,0,1,.063.88Z" transform="translate(-49.392 -17.759)"/><path d="M31.1,63.87c.377-1.571.754-3.142,1.194-4.65a31.319,31.319,0,0,1,6.033-10.495l.44-.44a1.024,1.024,0,0,1,1.508-.063c.5.5.251.88-.063,1.32-.88,1.194-1.885,2.388-2.765,3.645a27.308,27.308,0,0,0-4.4,11.06,1.577,1.577,0,0,1-.126.628,3.679,3.679,0,0,1-1.068.628c-.126,0-.44-.44-.628-.754a3.32,3.32,0,0,1-.063-.817C31.226,63.933,31.226,63.933,31.1,63.87Z" transform="translate(-11.577 -17.791)"/></g></svg>